<svg width="24" height="24" viewBox="0 0 24 24" fill="none" xmlns="http://www.w3.org/2000/svg">
<path d="M18.2378 6.26988C17.0905 5.74347 15.8602 5.35563 14.5739 5.1335C14.5505 5.12921 14.5271 5.13993 14.515 5.16136C14.3568 5.44277 14.1816 5.8099 14.0588 6.09846C12.6753 5.89132 11.2989 5.89132 9.94374 6.09846C9.82099 5.80347 9.63936 5.44277 9.48043 5.16136C9.46837 5.14064 9.44496 5.12993 9.42155 5.1335C8.13594 5.35492 6.90567 5.74276 5.7577 6.26988C5.74777 6.27416 5.73926 6.28131 5.73358 6.29059C3.40004 9.77687 2.76079 13.1774 3.07439 16.5359C3.0758 16.5523 3.08503 16.568 3.0978 16.578C4.63741 17.7087 6.12877 18.3951 7.59246 18.85C7.61588 18.8572 7.64071 18.8486 7.65561 18.8293C8.00184 18.3565 8.31047 17.8579 8.57512 17.3337C8.59072 17.303 8.57583 17.2665 8.5439 17.2544C8.05434 17.0687 7.5882 16.8423 7.1398 16.5851C7.10433 16.5644 7.10149 16.5137 7.13413 16.4894C7.22849 16.4187 7.32285 16.3452 7.41296 16.2709C7.42928 16.2573 7.45198 16.2544 7.47114 16.263C10.417 17.608 13.6062 17.608 16.5172 16.263C16.5364 16.2537 16.5591 16.2566 16.5761 16.2702C16.6662 16.3444 16.7606 16.4187 16.8557 16.4894C16.8883 16.5137 16.8862 16.5644 16.8507 16.5851C16.4023 16.8473 15.9361 17.0687 15.4459 17.2537C15.414 17.2658 15.3998 17.303 15.4154 17.3337C15.6857 17.8572 15.9943 18.3558 16.3342 18.8286C16.3484 18.8486 16.3739 18.8572 16.3973 18.85C17.8681 18.3951 19.3595 17.7087 20.8991 16.578C20.9126 16.568 20.9211 16.553 20.9225 16.5366C21.2978 12.6539 20.2939 9.28117 18.2612 6.29131C18.2562 6.28131 18.2477 6.27416 18.2378 6.26988ZM9.015 14.4909C8.12813 14.4909 7.39735 13.6767 7.39735 12.6767C7.39735 11.6768 8.11394 10.8625 9.015 10.8625C9.92316 10.8625 10.6468 11.6839 10.6327 12.6767C10.6327 13.6767 9.91606 14.4909 9.015 14.4909ZM14.9961 14.4909C14.1092 14.4909 13.3784 13.6767 13.3784 12.6767C13.3784 11.6768 14.095 10.8625 14.9961 10.8625C15.9042 10.8625 16.6279 11.6839 16.6137 12.6767C16.6137 13.6767 15.9042 14.4909 14.9961 14.4909Z" fill="black" fill-opacity="0.6"/>
</svg>
