<svg width="24" height="24" viewBox="0 0 24 24" fill="none" xmlns="http://www.w3.org/2000/svg">
<path fill-rule="evenodd" clip-rule="evenodd" d="M19.1268 18.0234C20.2698 17.1885 21 15.9534 21 14.5813C21 12.0662 18.5728 10.0277 15.5783 10.0277C12.5841 10.0277 10.1566 12.0662 10.1566 14.5813C10.1566 17.0964 12.5841 19.1352 15.5783 19.1352C16.1969 19.1352 16.7943 19.046 17.3482 18.8856C17.3985 18.8701 17.452 18.8615 17.5076 18.8615C17.6116 18.8615 17.7061 18.8934 17.7954 18.9454L18.9821 19.6362C19.0153 19.6551 19.0474 19.6701 19.0867 19.6701C19.1866 19.6701 19.2675 19.5885 19.2675 19.4881C19.2675 19.4428 19.2495 19.3979 19.2383 19.3547C19.2315 19.329 19.0854 18.7793 18.994 18.4362C18.9835 18.3976 18.9749 18.3604 18.9749 18.3202C18.9749 18.1979 19.0349 18.0894 19.1268 18.0234ZM13.7711 13.8061C13.3974 13.8061 13.0942 13.5008 13.0942 13.1241C13.0942 12.7472 13.3974 12.4418 13.7711 12.4418C14.145 12.4418 14.4481 12.7472 14.4481 13.1241C14.4481 13.5008 14.145 13.8061 13.7711 13.8061ZM17.3856 13.8061C17.0117 13.8061 16.709 13.5008 16.709 13.1241C16.709 12.7472 17.0117 12.4418 17.3856 12.4418C17.7596 12.4418 18.0626 12.7472 18.0626 13.1241C18.0626 13.5008 17.7596 13.8061 17.3856 13.8061Z" fill="black" fill-opacity="0.6"/>
<path fill-rule="evenodd" clip-rule="evenodd" d="M9.50599 5C5.91281 5 3 7.44663 3 10.4644C3 12.1112 3.87645 13.5934 5.24793 14.595C5.35812 14.6742 5.43017 14.8041 5.43017 14.9513C5.43017 14.9997 5.4199 15.0439 5.40719 15.0905C5.29765 15.5024 5.12226 16.1619 5.11411 16.1927C5.10042 16.2446 5.07923 16.2984 5.07923 16.3525C5.07923 16.4733 5.17621 16.5709 5.29602 16.5709C5.34329 16.5709 5.38159 16.5534 5.4212 16.5303L6.84582 15.7014C6.95275 15.6393 7.06604 15.601 7.19106 15.601C7.25773 15.601 7.32178 15.611 7.38226 15.6296C8.04681 15.8222 8.76352 15.9292 9.50599 15.9292C9.62595 15.9292 9.74494 15.9259 9.86328 15.9207C9.7218 15.4943 9.64486 15.0455 9.64486 14.5813C9.64486 11.8291 12.3013 9.59758 15.5784 9.59758C15.6971 9.59758 15.7274 9.60133 15.8442 9.60704C15.3543 6.99643 12.7518 5 9.50599 5ZM7.3376 9.49116C6.9125 9.49116 6.56808 9.14397 6.56808 8.71593C6.56808 8.28773 6.9125 7.94071 7.3376 7.94071C7.76205 7.94071 8.10647 8.28773 8.10647 8.71593C8.10647 9.14397 7.76205 9.49116 7.3376 9.49116ZM11.6747 9.491C11.2499 9.491 10.9055 9.14397 10.9055 8.71593C10.9055 8.28773 11.2499 7.94071 11.6747 7.94071C12.0995 7.94071 12.4439 8.28773 12.4439 8.71593C12.4439 9.14397 12.0995 9.491 11.6747 9.491Z" fill="black" fill-opacity="0.6"/>
</svg>
