<svg width="24" height="24" viewBox="0 0 24 24" fill="none" xmlns="http://www.w3.org/2000/svg">
<g clip-path="url(#clip0_6_5)">
<path d="M18.4 6H5.6C4.72 6 4.008 6.675 4.008 7.5L4 16.5C4 17.325 4.72 18 5.6 18H18.4C19.28 18 20 17.325 20 16.5V7.5C20 6.675 19.28 6 18.4 6ZM18.08 9.1875L12.424 12.5025C12.168 12.6525 11.832 12.6525 11.576 12.5025L5.92 9.1875C5.72 9.0675 5.6 8.865 5.6 8.6475C5.6 8.145 6.184 7.845 6.64 8.1075L12 11.25L17.36 8.1075C17.816 7.845 18.4 8.145 18.4 8.6475C18.4 8.865 18.28 9.0675 18.08 9.1875Z" fill="black" fill-opacity="0.6"/>
</g>
<defs>
<clipPath id="clip0_6_5">
<rect width="24" height="24" fill="white"/>
</clipPath>
</defs>
</svg>
